{
  "accessors": [
    {
      "bufferView": 3,
      "componentType": 5126,
      "count": 111,
      "max": [
        24.82929801940918,
        63.637214660644531,
        24.918878555297852
      ],
      "min": [
        -25.623567581176758,
        -0.60065948963165283,
        -25.357015609741211
      ],
      "type": "VEC3"
    },
    {
      "bufferView": 3,
      "byteOffset": 1332,
      "componentType": 5126,
      "count": 111,
      "max": [
        0.99999105930328369,
        0.9998549222946167,
        0.9999772310256958
      ],
      "min": [
        -0.99991482496261597,
        -0.99844247102737427,
        -0.99981212615966797
      ],
      "type": "VEC3"
    },
    {
      "bufferView": 4,
      "componentType": 5126,
      "count": 111,
      "max": [
        0.99484336376190186,
        0.40175065398216248,
        0.99675458669662476,
        1
      ],
      "min": [
        -0.9312976598739624,
        -0.79432564973831177,
        -0.95614612102508545,
        1
      ],
      "type": "VEC4"
    },
    {
      "bufferView": 2,
      "componentType": 5126,
      "count": 111,
      "max": [
        0.99950003623962402,
        0.98810708522796631
      ],
      "min": [
        0.00050000002374872565,
        0.00050000002374872565
      ],
      "type": "VEC2"
    },
    {
      "bufferView": 1,
      "componentType": 5125,
      "count": 576,
      "max": [
        110
      ],
      "min": [
        0
      ],
      "type": "SCALAR"
    },
    {
      "bufferView": 5,
      "componentType": 5126,
      "count": 3,
      "max": [
        1,
        0,
        0,
        0,
        1,
        1,
        1.9602761254511325e-12,
        0,
        4.0389678347315804e-28,
        0,
        1,
        0,
        0,
        1.1340092669342994e-06,
        0,
        1
      ],
      "min": [
        2.2197176008376118e-07,
        -1,
        -6.2445787989418022e-06,
        0,
        0,
        2.2197176008376118e-07,
        0,
        0,
        0,
        -6.2445787989418022e-06,
        1,
        0,
        -31.055343627929688,
        -1.721373791951919e-06,
        -1.6025720128709509e-07,
        1
      ],
      "type": "MAT4"
    },
    {
      "bufferView": 0,
      "componentType": 5123,
      "count": 111,
      "max": [
        2,
        2,
        1,
        1
      ],
      "min": [
        1,
        1,
        1,
        1
      ],
      "type": "VEC4"
    },
    {
      "bufferView": 4,
      "byteOffset": 1776,
      "componentType": 5126,
      "count": 111,
      "max": [
        0.98534852266311646,
        0.49942496418952942,
        0,
        0
      ],
      "min": [
        0.50057506561279297,
        0.014651498757302761,
        0,
        0
      ],
      "type": "VEC4"
    },
    {
      "bufferView": 6,
      "componentType": 5126,
      "count": 29,
      "max": [
        0.93333333730697632
      ],
      "min": [
        0
      ],
      "type": "SCALAR"
    },
    {
      "bufferView": 7,
      "componentType": 5126,
      "count": 29,
      "max": [
        25.571804046630859,
        2.9802322387695312e-07,
        5.0022208597511053e-12
      ],
      "min": [
        25.571798324584961,
        -3.5762792549576261e-07,
        -3.1832314562052488e-12
      ],
      "type": "VEC3"
    },
    {
      "bufferView": 6,
      "byteOffset": 116,
      "componentType": 5126,
      "count": 28,
      "max": [
        0.93333333730697632
      ],
      "min": [
        0
      ],
      "type": "SCALAR"
    },
    {
      "bufferView": 7,
      "byteOffset": 348,
      "componentType": 5126,
      "count": 28,
      "max": [
        1.0000001192092896,
        1.0000001192092896,
        1
      ],
      "min": [
        0.99999988079071045,
        0.99999988079071045,
        0.99999988079071045
      ],
      "type": "VEC3"
    },
    {
      "bufferView": 6,
      "byteOffset": 228,
      "componentType": 5126,
      "count": 29,
      "max": [
        0.93333333730697632
      ],
      "min": [
        0
      ],
      "type": "SCALAR"
    },
    {
      "bufferView": 8,
      "componentType": 5126,
      "count": 29,
      "max": [
        5.4335380639258801e-08,
        -1.6003104619244368e-08,
        0.2588191032409668,
        1
      ],
      "min": [
        -9.5681457423779648e-08,
        -2.2268842769790353e-07,
        -0.1736481636762619,
        0.96592581272125244
      ],
      "type": "VEC4"
    },
    {
      "bufferView": 6,
      "byteOffset": 344,
      "componentType": 5126,
      "count": 18,
      "max": [
        0.93333333730697632
      ],
      "min": [
        0
      ],
      "type": "SCALAR"
    },
    {
      "bufferView": 7,
      "byteOffset": 684,
      "componentType": 5126,
      "count": 18,
      "max": [
        1.0000001192092896,
        1,
        1.0000001192092896
      ],
      "min": [
        1,
        0.99999994039535522,
        1.0000001192092896
      ],
      "type": "VEC3"
    },
    {
      "bufferView": 6,
      "byteOffset": 416,
      "componentType": 5126,
      "count": 29,
      "max": [
        0.93333333730697632
      ],
      "min": [
        0
      ],
      "type": "SCALAR"
    },
    {
      "bufferView": 8,
      "byteOffset": 464,
      "componentType": 5126,
      "count": 29,
      "max": [
        -8.0234849519911222e-07,
        -7.3774253905867226e-07,
        0.76604437828063965,
        0.7660444974899292
      ],
      "min": [
        -3.4888112168118823e-06,
        -3.2883115181903122e-06,
        0.64278757572174072,
        0.64278769493103027
      ],
      "type": "VEC4"
    },
    {
      "bufferView": 6,
      "byteOffset": 532,
      "componentType": 5126,
      "count": 29,
      "max": [
        0.93333333730697632
      ],
      "min": [
        0
      ],
      "type": "SCALAR"
    },
    {
      "bufferView": 7,
      "byteOffset": 900,
      "componentType": 5126,
      "count": 29,
      "max": [
        25.571804046630859,
        2.9802322387695312e-07,
        5.0022208597511053e-12
      ],
      "min": [
        25.571798324584961,
        -3.5762792549576261e-07,
        -3.1832314562052488e-12
      ],
      "type": "VEC3"
    },
    {
      "bufferView": 6,
      "byteOffset": 648,
      "componentType": 5126,
      "count": 28,
      "max": [
        0.93333333730697632
      ],
      "min": [
        0
      ],
      "type": "SCALAR"
    },
    {
      "bufferView": 7,
      "byteOffset": 1248,
      "componentType": 5126,
      "count": 28,
      "max": [
        1.0000001192092896,
        1.0000001192092896,
        1
      ],
      "min": [
        0.99999988079071045,
        0.99999988079071045,
        0.99999988079071045
      ],
      "type": "VEC3"
    },
    {
      "bufferView": 6,
      "byteOffset": 760,
      "componentType": 5126,
      "count": 29,
      "max": [
        0.93333333730697632
      ],
      "min": [
        0
      ],
      "type": "SCALAR"
    },
    {
      "bufferView": 8,
      "byteOffset": 928,
      "componentType": 5126,
      "count": 29,
      "max": [
        5.4335380639258801e-08,
        -1.6003104619244368e-08,
        0.2588191032409668,
        1
      ],
      "min": [
        -9.5681457423779648e-08,
        -2.2268842769790353e-07,
        -0.1736481636762619,
        0.96592581272125244
      ],
      "type": "VEC4"
    },
    {
      "bufferView": 6,
      "byteOffset": 876,
      "componentType": 5126,
      "count": 18,
      "max": [
        0.93333333730697632
      ],
      "min": [
        0
      ],
      "type": "SCALAR"
    },
    {
      "bufferView": 7,
      "byteOffset": 1584,
      "componentType": 5126,
      "count": 18,
      "max": [
        1.0000001192092896,
        1,
        1.0000001192092896
      ],
      "min": [
        1,
        0.99999994039535522,
        1.0000001192092896
      ],
      "type": "VEC3"
    },
    {
      "bufferView": 6,
      "byteOffset": 948,
      "componentType": 5126,
      "count": 29,
      "max": [
        0.93333333730697632
      ],
      "min": [
        0
      ],
      "type": "SCALAR"
    },
    {
      "bufferView": 8,
      "byteOffset": 1392,
      "componentType": 5126,
      "count": 29,
      "max": [
        -8.0234849519911222e-07,
        -7.3774253905867226e-07,
        0.76604437828063965,
        0.7660444974899292
      ],
      "min": [
        -3.4888112168118823e-06,
        -3.2883115181903122e-06,
        0.64278757572174072,
        0.64278769493103027
      ],
      "type": "VEC4"
    }
  ],
  "animations": [
    {
      "channels": [
        {
          "sampler": 0,
          "target": {
            "node": 10,
            "path": "translation"
          }
        },
        {
          "sampler": 1,
          "target": {
            "node": 10,
            "path": "scale"
          }
        },
        {
          "sampler": 2,
          "target": {
            "node": 10,
            "path": "rotation"
          }
        },
        {
          "sampler": 3,
          "target": {
            "node": 9,
            "path": "scale"
          }
        },
        {
          "sampler": 4,
          "target": {
            "node": 9,
            "path": "rotation"
          }
        }
      ],
      "name": "Take 001",
      "samplers": [
        {
          "input": 8,
          "interpolation": "LINEAR",
          "output": 9
        },
        {
          "input": 10,
          "interpolation": "LINEAR",
          "output": 11
        },
        {
          "input": 12,
          "interpolation": "LINEAR",
          "output": 13
        },
        {
          "input": 14,
          "interpolation": "LINEAR",
          "output": 15
        },
        {
          "input": 16,
          "interpolation": "LINEAR",
          "output": 17
        }
      ]
    },
    {
      "channels": [
        {
          "sampler": 0,
          "target": {
            "node": 10,
            "path": "translation"
          }
        },
        {
          "sampler": 1,
          "target": {
            "node": 10,
            "path": "scale"
          }
        },
        {
          "sampler": 2,
          "target": {
            "node": 10,
            "path": "rotation"
          }
        },
        {
          "sampler": 3,
          "target": {
            "node": 9,
            "path": "scale"
          }
        },
        {
          "sampler": 4,
          "target": {
            "node": 9,
            "path": "rotation"
          }
        }
      ],
      "name": "BasicSketchfab_1",
      "samplers": [
        {
          "input": 18,
          "interpolation": "LINEAR",
          "output": 19
        },
        {
          "input": 20,
          "interpolation": "LINEAR",
          "output": 21
        },
        {
          "input": 22,
          "interpolation": "LINEAR",
          "output": 23
        },
        {
          "input": 24,
          "interpolation": "LINEAR",
          "output": 25
        },
        {
          "input": 26,
          "interpolation": "LINEAR",
          "output": 27
        }
      ]
    }
  ],
  "asset": {
    "extras": {
      "author": "lootin (https://sketchfab.com/lootin)",
      "license": "CC-BY-NC-4.0 (http://creativecommons.org/licenses/by-nc/4.0/)",
      "source": "https://sketchfab.com/3d-models/mallowslayer-basic-marshmallow-0b69e7223e0340ba8e7e56cc448f4669",
      "title": "MallowSlayer - Basic Marshmallow"
    },
    "generator": "Sketchfab-7.7.0",
    "version": "2.0"
  },
  "bufferViews": [
    {
      "buffer": 0,
      "byteLength": 888,
      "byteOffset": 0,
      "byteStride": 8,
      "name": "shortBufferViews",
      "target": 34962
    },
    {
      "buffer": 0,
      "byteLength": 2304,
      "byteOffset": 888,
      "name": "floatBufferViews",
      "target": 34963
    },
    {
      "buffer": 0,
      "byteLength": 888,
      "byteOffset": 3192,
      "byteStride": 8,
      "name": "floatBufferViews",
      "target": 34962
    },
    {
      "buffer": 0,
      "byteLength": 2664,
      "byteOffset": 4080,
      "byteStride": 12,
      "name": "floatBufferViews",
      "target": 34962
    },
    {
      "buffer": 0,
      "byteLength": 3552,
      "byteOffset": 6744,
      "byteStride": 16,
      "name": "floatBufferViews",
      "target": 34962
    },
    {
      "buffer": 0,
      "byteLength": 192,
      "byteOffset": 10296,
      "byteStride": 64,
      "name": "floatBufferViews"
    },
    {
      "buffer": 0,
      "byteLength": 1064,
      "byteOffset": 10488,
      "name": "floatBufferViews"
    },
    {
      "buffer": 0,
      "byteLength": 1800,
      "byteOffset": 11552,
      "byteStride": 12,
      "name": "floatBufferViews"
    },
    {
      "buffer": 0,
      "byteLength": 1856,
      "byteOffset": 13352,
      "byteStride": 16,
      "name": "floatBufferViews"
    }
  ],
  "buffers": [
    {
      "byteLength": 15208,
      "uri": "scene.bin"
    }
  ],
  "images": [
    {
      "uri": "textures/Material_40_baseColor.png"
    },
    {
      "uri": "textures/Material_40_normal.png"
    }
  ],
  "materials": [
    {
      "doubleSided": true,
      "emissiveFactor": [
        0,
        0,
        0
      ],
      "name": "Material_40",
      "normalTexture": {
        "index": 1,
        "scale": 1,
        "texCoord": 0
      },
      "pbrMetallicRoughness": {
        "baseColorFactor": [
          1,
          1,
          1,
          1
        ],
        "baseColorTexture": {
          "index": 0,
          "texCoord": 0
        },
        "metallicFactor": 0,
        "roughnessFactor": 0.89297135964975516
      }
    }
  ],
  "meshes": [
    {
      "name": "MarshmallowBasic_Material #40_0",
      "primitives": [
        {
          "attributes": {
            "JOINTS_0": 6,
            "NORMAL": 1,
            "POSITION": 0,
            "TANGENT": 2,
            "TEXCOORD_0": 3,
            "WEIGHTS_0": 7
          },
          "indices": 4,
          "material": 0,
          "mode": 4
        }
      ]
    }
  ],
  "nodes": [
    {
      "children": [
        1
      ],
      "name": "RootNode (gltf orientation matrix)",
      "rotation": [
        -0.70710678118654746,
        -0,
        -0,
        0.70710678118654757
      ]
    },
    {
      "children": [
        2
      ],
      "name": "RootNode (model correction matrix)"
    },
    {
      "children": [
        3
      ],
      "matrix": [
        1,
        0,
        0,
        0,
        0,
        0,
        1,
        0,
        0,
        -1,
        0,
        0,
        0,
        0,
        0,
        1
      ],
      "name": "fbx_merge.fbx"
    },
    {
      "children": [
        4
      ],
      "name": ""
    },
    {
      "children": [
        5
      ],
      "name": "RootNode"
    },
    {
      "children": [
        6,
        8,
        7,
        11
      ],
      "name": ""
    },
    {
      "children": [
        9
      ],
      "name": "_rootJoint"
    },
    {
      "matrix": [
        1.7546499967575069,
        1.1143429409297496e-22,
        -1.6940658945086007e-21,
        0,
        -1.6940658945086007e-21,
        1.0744132510764972e-16,
        -1.7546499967575069,
        0,
        -1.1143429409297489e-22,
        1.7546499967575073,
        1.0744132510764976e-16,
        0,
        -3.1096296087346869e-22,
        1.7763568394002505e-15,
        5.2939559203393771e-23,
        1
      ],
      "name": ""
    },
    {
      "mesh": 0,
      "name": "",
      "skin": 0
    },
    {
      "children": [
        10
      ],
      "name": "MallowBone01_00",
      "rotation": [
        -2.1369771729951026e-06,
        -2.1369767182477517e-06,
        0.70710670948028564,
        0.70710688829421997
      ],
      "translation": [
        0,
        5.483543872833252,
        1.6021176918457058e-07
      ]
    },
    {
      "name": "MallowBone02_01",
      "rotation": [
        -1.7694889109520773e-08,
        -4.4703682533508982e-08,
        7.2642976078896027e-08,
        1
      ],
      "translation": [
        25.571800231933594,
        -7.9580786405131221e-12,
        -4.5474735088646412e-13
      ]
    },
    {
      "name": "MarshmallowBasic",
      "rotation": [
        -0.7071068286895752,
        -0,
        0,
        0.7071068286895752
      ],
      "scale": [
        1.7546499967575073,
        1.7546499967575073,
        1.7546499967575073
      ]
    }
  ],
  "samplers": [
    {
      "magFilter": 9729,
      "minFilter": 9987,
      "wrapS": 10497,
      "wrapT": 10497
    }
  ],
  "scene": 0,
  "scenes": [
    {
      "name": "OSG_Scene",
      "nodes": [
        0
      ]
    }
  ],
  "skins": [
    {
      "inverseBindMatrices": 5,
      "joints": [
        6,
        9,
        10
      ],
      "skeleton": 6
    }
  ],
  "textures": [
    {
      "sampler": 0,
      "source": 0
    },
    {
      "sampler": 0,
      "source": 1
    }
  ]
}

