{
  "accessors": [
    {
      "bufferView": 1,
      "componentType": 5126,
      "count": 320,
      "max": [
        21.783000946044922,
        -0,
        25
      ],
      "min": [
        -21.783000946044922,
        -50,
        -25
      ],
      "type": "VEC3"
    },
    {
      "bufferView": 1,
      "byteOffset": 3840,
      "componentType": 5126,
      "count": 320,
      "max": [
        0.9999961256980896,
        1,
        0.99999737739562988
      ],
      "min": [
        -0.99999886751174927,
        -1,
        -0.99999445676803589
      ],
      "type": "VEC3"
    },
    {
      "bufferView": 0,
      "componentType": 5125,
      "count": 960,
      "max": [
        319
      ],
      "min": [
        0
      ],
      "type": "SCALAR"
    }
  ],
  "asset": {
    "extras": {
      "author": "Tyler Waite (https://sketchfab.com/holos-tyler)",
      "license": "CC-BY-4.0 (http://creativecommons.org/licenses/by/4.0/)",
      "source": "https://sketchfab.com/3d-models/r-0e83f7c0786f44b4978de432daa9102f",
      "title": "R"
    },
    "generator": "Sketchfab-5.81.0",
    "version": "2.0"
  },
  "bufferViews": [
    {
      "buffer": 0,
      "byteLength": 3840,
      "byteOffset": 0,
      "name": "floatBufferViews",
      "target": 34963
    },
    {
      "buffer": 0,
      "byteLength": 7680,
      "byteOffset": 3840,
      "byteStride": 12,
      "name": "floatBufferViews",
      "target": 34962
    }
  ],
  "buffers": [
    {
      "byteLength": 11520,
      "uri": "scene.bin"
    }
  ],
  "materials": [
    {
      "doubleSided": true,
      "emissiveFactor": [
        0,
        0,
        0
      ],
      "name": "color_12955475",
      "pbrMetallicRoughness": {
        "baseColorFactor": [
          0.55834038963426791,
          0.42869049661390662,
          0.086500462036549763,
          1
        ],
        "metallicFactor": 0,
        "roughnessFactor": 0.80000000000000004
      }
    }
  ],
  "meshes": [
    {
      "primitives": [
        {
          "attributes": {
            "NORMAL": 1,
            "POSITION": 0
          },
          "indices": 2,
          "material": 0,
          "mode": 4
        }
      ]
    }
  ],
  "nodes": [
    {
      "children": [
        1
      ],
      "name": "RootNode (gltf orientation matrix)",
      "rotation": [
        -0.70710678118654746,
        -0,
        -0,
        0.70710678118654757
      ]
    },
    {
      "children": [
        2
      ],
      "name": "RootNode (model correction matrix)"
    },
    {
      "children": [
        3
      ],
      "name": "R.obj.cleaner.materialmerger.gles"
    },
    {
      "mesh": 0,
      "name": ""
    }
  ],
  "scene": 0,
  "scenes": [
    {
      "name": "OSG_Scene",
      "nodes": [
        0
      ]
    }
  ]
}

