{
    "asset" : {
        "generator" : "Khronos glTF Blender I/O v1.1.46",
        "version" : "2.0"
    },
    "scene" : 0,
    "scenes" : [
        {
            "name" : "Scene",
            "nodes" : [
                0,
                1,
                2
            ]
        }
    ],
    "nodes" : [
        {
            "name" : "Light",
            "rotation" : [
                0.16907575726509094,
                0.7558803558349609,
                -0.27217137813568115,
                0.570947527885437
            ],
            "translation" : [
                4.076245307922363,
                5.903861999511719,
                -1.0054539442062378
            ]
        },
        {
            "name" : "Camera",
            "rotation" : [
                0.483536034822464,
                0.33687159419059753,
                -0.20870360732078552,
                0.7804827094078064
            ],
            "translation" : [
                7.358891487121582,
                4.958309173583984,
                6.925790786743164
            ]
        },
        {
            "mesh" : 0,
            "name" : "12190_Heart_v1_L3"
        }
    ],
    "materials" : [
        {
            "doubleSided" : true,
            "emissiveFactor" : [
                0,
                0,
                0
            ],
            "name" : "Heart",
            "pbrMetallicRoughness" : {
                "baseColorFactor" : [
                    0.6980000138282776,
                    0.050999999046325684,
                    0.050999999046325684,
                    1
                ],
                "metallicFactor" : 0,
                "roughnessFactor" : 0.7527933716773987
            }
        }
    ],
    "meshes" : [
        {
            "name" : "12190_Heart_v1_L3",
            "primitives" : [
                {
                    "attributes" : {
                        "POSITION" : 0,
                        "NORMAL" : 1,
                        "TEXCOORD_0" : 2
                    },
                    "indices" : 3,
                    "material" : 0
                }
            ]
        }
    ],
    "accessors" : [
        {
            "bufferView" : 0,
            "componentType" : 5126,
            "count" : 5974,
            "max" : [
                10.625,
                19.961200714111328,
                4.570099830627441
            ],
            "min" : [
                -10.625,
                0.046300001442432404,
                -4.571199893951416
            ],
            "type" : "VEC3"
        },
        {
            "bufferView" : 1,
            "componentType" : 5126,
            "count" : 5974,
            "type" : "VEC3"
        },
        {
            "bufferView" : 2,
            "componentType" : 5126,
            "count" : 5974,
            "type" : "VEC2"
        },
        {
            "bufferView" : 3,
            "componentType" : 5123,
            "count" : 33792,
            "type" : "SCALAR"
        }
    ],
    "bufferViews" : [
        {
            "buffer" : 0,
            "byteLength" : 71688,
            "byteOffset" : 0
        },
        {
            "buffer" : 0,
            "byteLength" : 71688,
            "byteOffset" : 71688
        },
        {
            "buffer" : 0,
            "byteLength" : 47792,
            "byteOffset" : 143376
        },
        {
            "buffer" : 0,
            "byteLength" : 67584,
            "byteOffset" : 191168
        }
    ],
    "buffers" : [
        {
            "byteLength" : 258752,
            "uri" : "HeartShape.bin"
        }
    ]
}
