{
  "accessors": [
    {
      "bufferView": 2,
      "componentType": 5126,
      "count": 2092,
      "max": [
        305.0941162109375,
        62.288970947265625,
        287.72991943359375
      ],
      "min": [
        0,
        23.868341445922852,
        158.73834228515625
      ],
      "type": "VEC3"
    },
    {
      "bufferView": 2,
      "byteOffset": 25104,
      "componentType": 5126,
      "count": 2092,
      "max": [
        0.99955105781555176,
        0.99913519620895386,
        0.99997419118881226
      ],
      "min": [
        -0.99955111742019653,
        -1,
        -0.99916422367095947
      ],
      "type": "VEC3"
    },
    {
      "bufferView": 3,
      "componentType": 5126,
      "count": 2092,
      "max": [
        0.99971026182174683,
        0.99996548891067505,
        1,
        1
      ],
      "min": [
        -1,
        -0.99999850988388062,
        -0.9999995231628418,
        -1
      ],
      "type": "VEC4"
    },
    {
      "bufferView": 1,
      "componentType": 5126,
      "count": 2092,
      "max": [
        0.9978029727935791,
        0.9978029727935791
      ],
      "min": [
        0.0012209999840706587,
        0.00048799999058246613
      ],
      "type": "VEC2"
    },
    {
      "bufferView": 0,
      "componentType": 5125,
      "count": 6030,
      "max": [
        2091
      ],
      "min": [
        0
      ],
      "type": "SCALAR"
    },
    {
      "bufferView": 2,
      "byteOffset": 50208,
      "componentType": 5126,
      "count": 955,
      "max": [
        220.96273803710938,
        100.01061248779297,
        235.92062377929688
      ],
      "min": [
        84.131416320800781,
        0,
        0
      ],
      "type": "VEC3"
    },
    {
      "bufferView": 2,
      "byteOffset": 61668,
      "componentType": 5126,
      "count": 955,
      "max": [
        0.99795842170715332,
        0.99911707639694214,
        0.99724018573760986
      ],
      "min": [
        -0.99980276823043823,
        -0.9988442063331604,
        -1
      ],
      "type": "VEC3"
    },
    {
      "bufferView": 3,
      "byteOffset": 33472,
      "componentType": 5126,
      "count": 955,
      "max": [
        0.99976170063018799,
        0.99961405992507935,
        0.99298650026321411,
        1
      ],
      "min": [
        -0.99994915723800659,
        -0.99718797206878662,
        -0.99884426593780518,
        -1
      ],
      "type": "VEC4"
    },
    {
      "bufferView": 1,
      "byteOffset": 16736,
      "componentType": 5126,
      "count": 955,
      "max": [
        0.99804699420928955,
        0.99877899885177612
      ],
      "min": [
        0.0019529999699443579,
        0.00073199998587369919
      ],
      "type": "VEC2"
    },
    {
      "bufferView": 0,
      "byteOffset": 24120,
      "componentType": 5125,
      "count": 2814,
      "max": [
        954
      ],
      "min": [
        0
      ],
      "type": "SCALAR"
    },
    {
      "bufferView": 2,
      "byteOffset": 73128,
      "componentType": 5126,
      "count": 54,
      "max": [
        159.02566528320312,
        33.085178375244141,
        269.56460571289062
      ],
      "min": [
        146.06851196289062,
        30.649923324584961,
        264.51376342773438
      ],
      "type": "VEC3"
    },
    {
      "bufferView": 2,
      "byteOffset": 73776,
      "componentType": 5126,
      "count": 54,
      "max": [
        0.96497756242752075,
        -0.24707259237766266,
        0.95529913902282715
      ],
      "min": [
        -0.96497738361358643,
        -1,
        -0.76270157098770142
      ],
      "type": "VEC3"
    },
    {
      "bufferView": 3,
      "byteOffset": 48752,
      "componentType": 5126,
      "count": 54,
      "max": [
        -0.25659021735191345,
        0.96032255887985229,
        0.30273056030273438,
        -1
      ],
      "min": [
        -0.99991798400878906,
        -0.96034210920333862,
        -0.30287042260169983,
        -1
      ],
      "type": "VEC4"
    },
    {
      "bufferView": 1,
      "byteOffset": 24376,
      "componentType": 5126,
      "count": 54,
      "max": [
        0.99536097049713135,
        0.99511700868606567
      ],
      "min": [
        0.0053710001520812511,
        0.55102497339248657
      ],
      "type": "VEC2"
    },
    {
      "bufferView": 0,
      "byteOffset": 35376,
      "componentType": 5125,
      "count": 252,
      "max": [
        53
      ],
      "min": [
        0
      ],
      "type": "SCALAR"
    }
  ],
  "asset": {
    "extras": {
      "author": "peedr0o0 (https://sketchfab.com/peedr0o0)",
      "license": "CC-BY-4.0 (http://creativecommons.org/licenses/by/4.0/)",
      "source": "https://sketchfab.com/models/435711d7ab4f47898b7872dbde00a162",
      "title": "Kingdom Hearts - Hades"
    },
    "generator": "Sketchfab-3.18.6",
    "version": "2.0"
  },
  "bufferViews": [
    {
      "buffer": 0,
      "byteLength": 36384,
      "byteOffset": 0,
      "name": "floatBufferViews",
      "target": 34963
    },
    {
      "buffer": 0,
      "byteLength": 24808,
      "byteOffset": 36384,
      "byteStride": 8,
      "name": "floatBufferViews",
      "target": 34962
    },
    {
      "buffer": 0,
      "byteLength": 74424,
      "byteOffset": 61192,
      "byteStride": 12,
      "name": "floatBufferViews",
      "target": 34962
    },
    {
      "buffer": 0,
      "byteLength": 49616,
      "byteOffset": 135616,
      "byteStride": 16,
      "name": "floatBufferViews",
      "target": 34962
    }
  ],
  "buffers": [
    {
      "byteLength": 185232,
      "uri": "scene.bin"
    }
  ],
  "extensionsUsed": [
    "KHR_materials_unlit"
  ],
  "images": [
    {
      "uri": "textures/default_material_texture000.png_emissive.png"
    },
    {
      "uri": "textures/default_material_texture000.png_baseColor.png"
    },
    {
      "uri": "textures/default_material_texture002.png_emissive.png"
    },
    {
      "uri": "textures/default_material_texture002.png_baseColor.png"
    },
    {
      "uri": "textures/default_material_texture001.png_emissive.png"
    },
    {
      "uri": "textures/default_material_texture001.png_baseColor.png"
    }
  ],
  "materials": [
    {
      "doubleSided": false,
      "emissiveFactor": [
        1,
        1,
        1
      ],
      "emissiveTexture": {
        "index": 0,
        "texCoord": 0
      },
      "extensions": {
        "KHR_materials_unlit": {}
      },
      "name": "default_material_texture000.png",
      "pbrMetallicRoughness": {
        "baseColorFactor": [
          1,
          1,
          1,
          1
        ],
        "baseColorTexture": {
          "index": 1,
          "texCoord": 0
        },
        "metallicFactor": 0,
        "roughnessFactor": 1
      }
    },
    {
      "doubleSided": false,
      "emissiveFactor": [
        1,
        1,
        1
      ],
      "emissiveTexture": {
        "index": 4,
        "texCoord": 0
      },
      "extensions": {
        "KHR_materials_unlit": {}
      },
      "name": "default_material_texture001.png",
      "pbrMetallicRoughness": {
        "baseColorFactor": [
          1,
          1,
          1,
          1
        ],
        "baseColorTexture": {
          "index": 5,
          "texCoord": 0
        },
        "metallicFactor": 0,
        "roughnessFactor": 1
      }
    },
    {
      "doubleSided": true,
      "emissiveFactor": [
        1,
        1,
        1
      ],
      "emissiveTexture": {
        "index": 2,
        "texCoord": 0
      },
      "extensions": {
        "KHR_materials_unlit": {}
      },
      "name": "default_material_texture002.png",
      "pbrMetallicRoughness": {
        "baseColorFactor": [
          1,
          1,
          1,
          1
        ],
        "baseColorTexture": {
          "index": 3,
          "texCoord": 0
        },
        "metallicFactor": 0,
        "roughnessFactor": 1
      }
    }
  ],
  "meshes": [
    {
      "primitives": [
        {
          "attributes": {
            "NORMAL": 1,
            "POSITION": 0,
            "TANGENT": 2,
            "TEXCOORD_0": 3
          },
          "indices": 4,
          "material": 0,
          "mode": 4
        }
      ]
    },
    {
      "primitives": [
        {
          "attributes": {
            "NORMAL": 6,
            "POSITION": 5,
            "TANGENT": 7,
            "TEXCOORD_0": 8
          },
          "indices": 9,
          "material": 1,
          "mode": 4
        }
      ]
    },
    {
      "primitives": [
        {
          "attributes": {
            "NORMAL": 11,
            "POSITION": 10,
            "TANGENT": 12,
            "TEXCOORD_0": 13
          },
          "indices": 14,
          "material": 2,
          "mode": 4
        }
      ]
    }
  ],
  "nodes": [
    {
      "children": [
        1
      ],
      "name": "RootNode (gltf orientation matrix)",
      "rotation": [
        -0.70710678118654746,
        -0,
        -0,
        0.70710678118654757
      ]
    },
    {
      "children": [
        2
      ],
      "name": "RootNode (model correction matrix)"
    },
    {
      "children": [
        3
      ],
      "matrix": [
        1,
        0,
        0,
        0,
        0,
        1,
        0,
        0,
        0,
        0,
        1,
        0,
        -152.54708862304688,
        -50.184528350830078,
        0.26050201058387756,
        1
      ],
      "name": "Hades.obj.cleaner.gles"
    },
    {
      "children": [
        4,
        5,
        6
      ],
      "name": ""
    },
    {
      "mesh": 0,
      "name": ""
    },
    {
      "mesh": 1,
      "name": ""
    },
    {
      "mesh": 2,
      "name": ""
    }
  ],
  "samplers": [
    {
      "magFilter": 9729,
      "minFilter": 9987,
      "wrapS": 10497,
      "wrapT": 10497
    }
  ],
  "scene": 0,
  "scenes": [
    {
      "name": "OSG_Scene",
      "nodes": [
        0
      ]
    }
  ],
  "textures": [
    {
      "sampler": 0,
      "source": 0
    },
    {
      "sampler": 0,
      "source": 1
    },
    {
      "sampler": 0,
      "source": 2
    },
    {
      "sampler": 0,
      "source": 3
    },
    {
      "sampler": 0,
      "source": 4
    },
    {
      "sampler": 0,
      "source": 5
    }
  ]
}

