{
  "accessors": [
    {
      "bufferView": 2,
      "componentType": 5126,
      "count": 3850,
      "max": [
        0.50676202774047852,
        0.99710798263549805,
        0.23077300190925598
      ],
      "min": [
        -0.50676202774047852,
        -1,
        -0.058050099760293961
      ],
      "type": "VEC3"
    },
    {
      "bufferView": 2,
      "byteOffset": 46200,
      "componentType": 5126,
      "count": 3850,
      "max": [
        1,
        1,
        1
      ],
      "min": [
        -1,
        -1,
        -1
      ],
      "type": "VEC3"
    },
    {
      "bufferView": 3,
      "componentType": 5126,
      "count": 3850,
      "max": [
        1,
        1,
        1,
        1
      ],
      "min": [
        -1,
        -1,
        -1,
        -1
      ],
      "type": "VEC4"
    },
    {
      "bufferView": 1,
      "componentType": 5126,
      "count": 3850,
      "max": [
        1,
        1
      ],
      "min": [
        0,
        0
      ],
      "type": "VEC2"
    },
    {
      "bufferView": 0,
      "componentType": 5125,
      "count": 7968,
      "max": [
        3849
      ],
      "min": [
        0
      ],
      "type": "SCALAR"
    },
    {
      "bufferView": 2,
      "byteOffset": 92400,
      "componentType": 5126,
      "count": 783,
      "max": [
        0.50676202774047852,
        1,
        0.23077300190925598
      ],
      "min": [
        -0.50676202774047852,
        -0.79197198152542114,
        -0.23605899512767792
      ],
      "type": "VEC3"
    },
    {
      "bufferView": 2,
      "byteOffset": 101796,
      "componentType": 5126,
      "count": 783,
      "max": [
        1,
        0.99994587898254395,
        1
      ],
      "min": [
        -1,
        -0.99994552135467529,
        -1
      ],
      "type": "VEC3"
    },
    {
      "bufferView": 3,
      "byteOffset": 61600,
      "componentType": 5126,
      "count": 783,
      "max": [
        1,
        0.99998098611831665,
        1,
        1
      ],
      "min": [
        -1,
        -0.99998098611831665,
        -1,
        1
      ],
      "type": "VEC4"
    },
    {
      "bufferView": 1,
      "byteOffset": 30800,
      "componentType": 5126,
      "count": 783,
      "max": [
        0.90587902069091797,
        0.99965101480484009
      ],
      "min": [
        0.00034849598887376487,
        0.00034849598887376487
      ],
      "type": "VEC2"
    },
    {
      "bufferView": 0,
      "byteOffset": 31872,
      "componentType": 5125,
      "count": 2688,
      "max": [
        782
      ],
      "min": [
        0
      ],
      "type": "SCALAR"
    },
    {
      "bufferView": 2,
      "byteOffset": 111192,
      "componentType": 5126,
      "count": 497,
      "max": [
        0.092036902904510498,
        0.61335700750350952,
        0.23605899512767792
      ],
      "min": [
        -0.092424303293228149,
        0.37044298648834229,
        -0.01734980009496212
      ],
      "type": "VEC3"
    },
    {
      "bufferView": 2,
      "byteOffset": 117156,
      "componentType": 5126,
      "count": 497,
      "max": [
        0.99960535764694214,
        0.99873673915863037,
        0.99959421157836914
      ],
      "min": [
        -0.99968922138214111,
        -0.99989861249923706,
        -0.99857401847839355
      ],
      "type": "VEC3"
    },
    {
      "bufferView": 3,
      "byteOffset": 74128,
      "componentType": 5126,
      "count": 497,
      "max": [
        0.99541699886322021,
        0.99995100498199463,
        0.99988198280334473,
        1
      ],
      "min": [
        -0.99995899200439453,
        -0.3712419867515564,
        -0.99894499778747559,
        1
      ],
      "type": "VEC4"
    },
    {
      "bufferView": 1,
      "byteOffset": 37064,
      "componentType": 5126,
      "count": 497,
      "max": [
        0.62964498996734619,
        0.99992102384567261
      ],
      "min": [
        7.9338897194247693e-05,
        7.9338897194247693e-05
      ],
      "type": "VEC2"
    },
    {
      "bufferView": 0,
      "byteOffset": 42624,
      "componentType": 5125,
      "count": 2880,
      "max": [
        496
      ],
      "min": [
        0
      ],
      "type": "SCALAR"
    }
  ],
  "asset": {
    "extras": {
      "author": "Tactical_Beard (https://sketchfab.com/Tactical_Beard)",
      "license": "CC-BY-4.0 (http://creativecommons.org/licenses/by/4.0/)",
      "source": "https://sketchfab.com/models/a4525c5b3acb40beadfa2a946f500714",
      "title": "Practice Dummy"
    },
    "generator": "Sketchfab-3.19.5",
    "version": "2.0"
  },
  "bufferViews": [
    {
      "buffer": 0,
      "byteLength": 54144,
      "byteOffset": 0,
      "name": "floatBufferViews",
      "target": 34963
    },
    {
      "buffer": 0,
      "byteLength": 41040,
      "byteOffset": 54144,
      "byteStride": 8,
      "name": "floatBufferViews",
      "target": 34962
    },
    {
      "buffer": 0,
      "byteLength": 123120,
      "byteOffset": 95184,
      "byteStride": 12,
      "name": "floatBufferViews",
      "target": 34962
    },
    {
      "buffer": 0,
      "byteLength": 82080,
      "byteOffset": 218304,
      "byteStride": 16,
      "name": "floatBufferViews",
      "target": 34962
    }
  ],
  "buffers": [
    {
      "byteLength": 300384,
      "uri": "scene.bin"
    }
  ],
  "images": [
    {
      "uri": "textures/Burlap_normal.png"
    },
    {
      "uri": "textures/Burlap_metallicRoughness.png"
    },
    {
      "uri": "textures/Burlap_baseColor.jpeg"
    },
    {
      "uri": "textures/Iron_normal.png"
    },
    {
      "uri": "textures/Iron_metallicRoughness.png"
    },
    {
      "uri": "textures/Iron_baseColor.jpeg"
    },
    {
      "uri": "textures/Wood_normal.png"
    },
    {
      "uri": "textures/Wood_metallicRoughness.png"
    },
    {
      "uri": "textures/Wood_baseColor.jpeg"
    }
  ],
  "materials": [
    {
      "doubleSided": true,
      "emissiveFactor": [
        0,
        0,
        0
      ],
      "name": "Burlap",
      "normalTexture": {
        "index": 0,
        "scale": 1,
        "texCoord": 0
      },
      "pbrMetallicRoughness": {
        "baseColorFactor": [
          1,
          1,
          1,
          1
        ],
        "baseColorTexture": {
          "index": 2,
          "texCoord": 0
        },
        "metallicFactor": 1,
        "metallicRoughnessTexture": {
          "index": 1,
          "texCoord": 0
        },
        "roughnessFactor": 1
      }
    },
    {
      "doubleSided": true,
      "emissiveFactor": [
        0,
        0,
        0
      ],
      "name": "Wood",
      "normalTexture": {
        "index": 6,
        "scale": 1,
        "texCoord": 0
      },
      "pbrMetallicRoughness": {
        "baseColorFactor": [
          1,
          1,
          1,
          1
        ],
        "baseColorTexture": {
          "index": 8,
          "texCoord": 0
        },
        "metallicFactor": 1,
        "metallicRoughnessTexture": {
          "index": 7,
          "texCoord": 0
        },
        "roughnessFactor": 1
      }
    },
    {
      "doubleSided": true,
      "emissiveFactor": [
        0,
        0,
        0
      ],
      "name": "Iron",
      "normalTexture": {
        "index": 3,
        "scale": 1,
        "texCoord": 0
      },
      "pbrMetallicRoughness": {
        "baseColorFactor": [
          1,
          1,
          1,
          1
        ],
        "baseColorTexture": {
          "index": 5,
          "texCoord": 0
        },
        "metallicFactor": 1,
        "metallicRoughnessTexture": {
          "index": 4,
          "texCoord": 0
        },
        "roughnessFactor": 1
      }
    }
  ],
  "meshes": [
    {
      "name": "defaultMaterial",
      "primitives": [
        {
          "attributes": {
            "NORMAL": 1,
            "POSITION": 0,
            "TANGENT": 2,
            "TEXCOORD_0": 3
          },
          "indices": 4,
          "material": 2,
          "mode": 4
        }
      ]
    },
    {
      "name": "defaultMaterial",
      "primitives": [
        {
          "attributes": {
            "NORMAL": 6,
            "POSITION": 5,
            "TANGENT": 7,
            "TEXCOORD_0": 8
          },
          "indices": 9,
          "material": 1,
          "mode": 4
        }
      ]
    },
    {
      "name": "defaultMaterial",
      "primitives": [
        {
          "attributes": {
            "NORMAL": 11,
            "POSITION": 10,
            "TANGENT": 12,
            "TEXCOORD_0": 13
          },
          "indices": 14,
          "material": 0,
          "mode": 4
        }
      ]
    }
  ],
  "nodes": [
    {
      "children": [
        1
      ],
      "name": "RootNode (gltf orientation matrix)",
      "rotation": [
        -0.70710678118654746,
        -0,
        -0,
        0.70710678118654757
      ]
    },
    {
      "children": [
        2
      ],
      "name": "RootNode (model correction matrix)"
    },
    {
      "children": [
        3,
        5,
        7
      ],
      "matrix": [
        1,
        0,
        0,
        0,
        0,
        -4.3711390063094768e-08,
        0.999999999999999,
        0,
        0,
        -0.999999999999999,
        -4.3711390063094768e-08,
        0,
        0,
        0,
        0,
        1
      ],
      "name": "Collada visual scene group"
    },
    {
      "children": [
        4
      ],
      "name": "Sphere"
    },
    {
      "mesh": 0,
      "name": "defaultMaterial"
    },
    {
      "children": [
        6
      ],
      "name": "Sphere"
    },
    {
      "mesh": 1,
      "name": "defaultMaterial"
    },
    {
      "children": [
        8
      ],
      "name": "Sphere"
    },
    {
      "mesh": 2,
      "name": "defaultMaterial"
    }
  ],
  "samplers": [
    {
      "magFilter": 9729,
      "minFilter": 9987,
      "wrapS": 10497,
      "wrapT": 10497
    }
  ],
  "scene": 0,
  "scenes": [
    {
      "name": "OSG_Scene",
      "nodes": [
        0
      ]
    }
  ],
  "textures": [
    {
      "sampler": 0,
      "source": 0
    },
    {
      "sampler": 0,
      "source": 1
    },
    {
      "sampler": 0,
      "source": 2
    },
    {
      "sampler": 0,
      "source": 3
    },
    {
      "sampler": 0,
      "source": 4
    },
    {
      "sampler": 0,
      "source": 5
    },
    {
      "sampler": 0,
      "source": 6
    },
    {
      "sampler": 0,
      "source": 7
    },
    {
      "sampler": 0,
      "source": 8
    }
  ]
}

