{
    "asset" : {
        "generator" : "Khronos glTF Blender I/O v1.1.46",
        "version" : "2.0"
    },
    "scene" : 0,
    "scenes" : [
        {
            "name" : "Scene",
            "nodes" : [
                0,
                1,
                2
            ]
        }
    ],
    "nodes" : [
        {
            "name" : "Light",
            "rotation" : [
                0.16907575726509094,
                0.7558803558349609,
                -0.27217137813568115,
                0.570947527885437
            ],
            "translation" : [
                4.076245307922363,
                5.903861999511719,
                -1.0054539442062378
            ]
        },
        {
            "name" : "Camera",
            "rotation" : [
                0.483536034822464,
                0.33687159419059753,
                -0.20870360732078552,
                0.7804827094078064
            ],
            "translation" : [
                7.358891487121582,
                4.958309173583984,
                6.925790786743164
            ]
        },
        {
            "mesh" : 0,
            "name" : "BE8EFA63NYJ2KU66JIEDC2984",
            "rotation" : [
                0.7071068286895752,
                0,
                0,
                0.7071067094802856
            ],
            "translation" : [
                0.049924906343221664,
                0.8251265287399292,
                -0.014059298671782017
            ]
        }
    ],
    "materials" : [
        {
            "doubleSided" : true,
            "emissiveFactor" : [
                0,
                0,
                0
            ],
            "name" : "mat_0-texture002.jpg",
            "pbrMetallicRoughness" : {
                "baseColorTexture" : {
                    "index" : 0,
                    "texCoord" : 0
                },
                "metallicFactor" : 0,
                "roughnessFactor" : 0.8953887820243835
            }
        },
        {
            "doubleSided" : true,
            "emissiveFactor" : [
                0,
                0,
                0
            ],
            "name" : "mat_1-texture001.jpg",
            "pbrMetallicRoughness" : {
                "baseColorTexture" : {
                    "index" : 1,
                    "texCoord" : 0
                },
                "metallicFactor" : 0,
                "roughnessFactor" : 0.8953887820243835
            }
        },
        {
            "doubleSided" : true,
            "emissiveFactor" : [
                0,
                0,
                0
            ],
            "name" : "mat_2-texture000.jpg",
            "pbrMetallicRoughness" : {
                "baseColorTexture" : {
                    "index" : 2,
                    "texCoord" : 0
                },
                "metallicFactor" : 0,
                "roughnessFactor" : 0.8953887820243835
            }
        }
    ],
    "meshes" : [
        {
            "name" : "BE8EFA63NYJ2KU66JIEDC2984",
            "primitives" : [
                {
                    "attributes" : {
                        "POSITION" : 0,
                        "NORMAL" : 1,
                        "TEXCOORD_0" : 2
                    },
                    "indices" : 3,
                    "material" : 0
                },
                {
                    "attributes" : {
                        "POSITION" : 4,
                        "NORMAL" : 5,
                        "TEXCOORD_0" : 6
                    },
                    "indices" : 7,
                    "material" : 1
                },
                {
                    "attributes" : {
                        "POSITION" : 8,
                        "NORMAL" : 9,
                        "TEXCOORD_0" : 10
                    },
                    "indices" : 11,
                    "material" : 2
                }
            ]
        }
    ],
    "textures" : [
        {
            "source" : 0
        },
        {
            "source" : 1
        },
        {
            "source" : 2
        }
    ],
    "images" : [
        {
            "mimeType" : "image/jpeg",
            "name" : "texture002",
            "uri" : "texture002.jpg"
        },
        {
            "mimeType" : "image/jpeg",
            "name" : "texture001",
            "uri" : "texture001.jpg"
        },
        {
            "mimeType" : "image/jpeg",
            "name" : "texture000",
            "uri" : "texture000.jpg"
        }
    ],
    "accessors" : [
        {
            "bufferView" : 0,
            "componentType" : 5126,
            "count" : 1512,
            "max" : [
                -0.10612811148166656,
                0.2405490279197693,
                -0.19019415974617004
            ],
            "min" : [
                -0.44141414761543274,
                -0.2404269576072693,
                -0.6519231796264648
            ],
            "type" : "VEC3"
        },
        {
            "bufferView" : 1,
            "componentType" : 5126,
            "count" : 1512,
            "type" : "VEC3"
        },
        {
            "bufferView" : 2,
            "componentType" : 5126,
            "count" : 1512,
            "type" : "VEC2"
        },
        {
            "bufferView" : 3,
            "componentType" : 5123,
            "count" : 1512,
            "type" : "SCALAR"
        },
        {
            "bufferView" : 4,
            "componentType" : 5126,
            "count" : 2322,
            "max" : [
                0.9477528929710388,
                0.4499950110912323,
                0.7950769662857056
            ],
            "min" : [
                -0.2550371289253235,
                -0.4498730003833771,
                -0.8106591701507568
            ],
            "type" : "VEC3"
        },
        {
            "bufferView" : 5,
            "componentType" : 5126,
            "count" : 2322,
            "type" : "VEC3"
        },
        {
            "bufferView" : 6,
            "componentType" : 5126,
            "count" : 2322,
            "type" : "VEC2"
        },
        {
            "bufferView" : 7,
            "componentType" : 5123,
            "count" : 2322,
            "type" : "SCALAR"
        },
        {
            "bufferView" : 8,
            "componentType" : 5126,
            "count" : 4597,
            "max" : [
                0.3750448524951935,
                1.25006103515625,
                0.711124837398529
            ],
            "min" : [
                -0.47888514399528503,
                -1.24993896484375,
                -0.8143031597137451
            ],
            "type" : "VEC3"
        },
        {
            "bufferView" : 9,
            "componentType" : 5126,
            "count" : 4597,
            "type" : "VEC3"
        },
        {
            "bufferView" : 10,
            "componentType" : 5126,
            "count" : 4597,
            "type" : "VEC2"
        },
        {
            "bufferView" : 11,
            "componentType" : 5123,
            "count" : 4614,
            "type" : "SCALAR"
        }
    ],
    "bufferViews" : [
        {
            "buffer" : 0,
            "byteLength" : 18144,
            "byteOffset" : 0
        },
        {
            "buffer" : 0,
            "byteLength" : 18144,
            "byteOffset" : 18144
        },
        {
            "buffer" : 0,
            "byteLength" : 12096,
            "byteOffset" : 36288
        },
        {
            "buffer" : 0,
            "byteLength" : 3024,
            "byteOffset" : 48384
        },
        {
            "buffer" : 0,
            "byteLength" : 27864,
            "byteOffset" : 51408
        },
        {
            "buffer" : 0,
            "byteLength" : 27864,
            "byteOffset" : 79272
        },
        {
            "buffer" : 0,
            "byteLength" : 18576,
            "byteOffset" : 107136
        },
        {
            "buffer" : 0,
            "byteLength" : 4644,
            "byteOffset" : 125712
        },
        {
            "buffer" : 0,
            "byteLength" : 55164,
            "byteOffset" : 130356
        },
        {
            "buffer" : 0,
            "byteLength" : 55164,
            "byteOffset" : 185520
        },
        {
            "buffer" : 0,
            "byteLength" : 36776,
            "byteOffset" : 240684
        },
        {
            "buffer" : 0,
            "byteLength" : 9228,
            "byteOffset" : 277460
        }
    ],
    "buffers" : [
        {
            "byteLength" : 286688,
            "uri" : "Phil.bin"
        }
    ]
}
