{
  "accessors": [
    {
      "bufferView": 2,
      "componentType": 5126,
      "count": 65532,
      "max": [
        0.5,
        -0,
        -0.23856200277805328
      ],
      "min": [
        -0.5,
        -0.055886000394821167,
        -0.5
      ],
      "type": "VEC3"
    },
    {
      "bufferView": 2,
      "byteOffset": 786384,
      "componentType": 5126,
      "count": 65532,
      "max": [
        0.95251071453094482,
        -0.19203078746795654,
        0.96700817346572876
      ],
      "min": [
        -0.95826601982116699,
        -1,
        -0.92441779375076294
      ],
      "type": "VEC3"
    },
    {
      "bufferView": 3,
      "componentType": 5126,
      "count": 65532,
      "max": [
        1,
        0.95392608642578125,
        0.00014950083277653903,
        1
      ],
      "min": [
        0.2580101490020752,
        -0.96614217758178711,
        -0.00013780438166577369,
        1
      ],
      "type": "VEC4"
    },
    {
      "bufferView": 1,
      "componentType": 5126,
      "count": 65532,
      "max": [
        1,
        0.26143801212310791
      ],
      "min": [
        0,
        0
      ],
      "type": "VEC2"
    },
    {
      "bufferView": 0,
      "componentType": 5125,
      "count": 350988,
      "max": [
        65531
      ],
      "min": [
        0
      ],
      "type": "SCALAR"
    },
    {
      "bufferView": 2,
      "byteOffset": 1572768,
      "componentType": 5126,
      "count": 65532,
      "max": [
        0.5,
        -0,
        -0.094770997762680054
      ],
      "min": [
        -0.5,
        -0.063729003071784973,
        -0.38888901472091675
      ],
      "type": "VEC3"
    },
    {
      "bufferView": 2,
      "byteOffset": 2359152,
      "componentType": 5126,
      "count": 65532,
      "max": [
        0.97585964202880859,
        -0.16827797889709473,
        0.97073215246200562
      ],
      "min": [
        -0.98139470815658569,
        -1,
        -0.96642398834228516
      ],
      "type": "VEC3"
    },
    {
      "bufferView": 3,
      "byteOffset": 1048512,
      "componentType": 5126,
      "count": 65532,
      "max": [
        1,
        0.9776647686958313,
        0.00018720205116551369,
        1
      ],
      "min": [
        0.19145339727401733,
        -0.98150175809860229,
        -0.00017723080236464739,
        1
      ],
      "type": "VEC4"
    },
    {
      "bufferView": 1,
      "byteOffset": 524256,
      "componentType": 5126,
      "count": 65532,
      "max": [
        1,
        0.40522900223731995
      ],
      "min": [
        0,
        0.11111100018024445
      ],
      "type": "VEC2"
    },
    {
      "bufferView": 0,
      "byteOffset": 1403952,
      "componentType": 5125,
      "count": 320967,
      "max": [
        65531
      ],
      "min": [
        0
      ],
      "type": "SCALAR"
    },
    {
      "bufferView": 2,
      "byteOffset": 3145536,
      "componentType": 5126,
      "count": 65532,
      "max": [
        0.5,
        -0,
        0.16993500292301178
      ],
      "min": [
        -0.5,
        -0.082833997905254364,
        -0.23529399931430817
      ],
      "type": "VEC3"
    },
    {
      "bufferView": 2,
      "byteOffset": 3931920,
      "componentType": 5126,
      "count": 65532,
      "max": [
        0.97850996255874634,
        -0.18089698255062103,
        0.96838027238845825
      ],
      "min": [
        -0.97208619117736816,
        -1,
        -0.95460206270217896
      ],
      "type": "VEC3"
    },
    {
      "bufferView": 3,
      "byteOffset": 2097024,
      "componentType": 5126,
      "count": 65532,
      "max": [
        1,
        0.97965842485427856,
        0.00018720205116551369,
        1
      ],
      "min": [
        0.1997351199388504,
        -0.97984993457794189,
        -0.00012988832895644009,
        1
      ],
      "type": "VEC4"
    },
    {
      "bufferView": 1,
      "byteOffset": 1048512,
      "componentType": 5126,
      "count": 65532,
      "max": [
        1,
        0.66993498802185059
      ],
      "min": [
        0,
        0.26470598578453064
      ],
      "type": "VEC2"
    },
    {
      "bufferView": 0,
      "byteOffset": 2687820,
      "componentType": 5125,
      "count": 324852,
      "max": [
        65531
      ],
      "min": [
        0
      ],
      "type": "SCALAR"
    },
    {
      "bufferView": 2,
      "byteOffset": 4718304,
      "componentType": 5126,
      "count": 65532,
      "max": [
        0.5,
        -0,
        0.20097999274730682
      ],
      "min": [
        -0.5,
        -0.085873998701572418,
        -0.088234998285770416
      ],
      "type": "VEC3"
    },
    {
      "bufferView": 2,
      "byteOffset": 5504688,
      "componentType": 5126,
      "count": 65532,
      "max": [
        0.96194911003112793,
        -0.21547724306583405,
        0.93914920091629028
      ],
      "min": [
        -0.96887379884719849,
        -1,
        -0.94753187894821167
      ],
      "type": "VEC3"
    },
    {
      "bufferView": 3,
      "byteOffset": 3145536,
      "componentType": 5126,
      "count": 65532,
      "max": [
        1,
        0.97047156095504761,
        0.00011657882714644074,
        1
      ],
      "min": [
        0.24121569097042084,
        -0.97028172016143799,
        -0.00014804302190896124,
        1
      ],
      "type": "VEC4"
    },
    {
      "bufferView": 1,
      "byteOffset": 1572768,
      "componentType": 5126,
      "count": 65532,
      "max": [
        1,
        0.70098000764846802
      ],
      "min": [
        0,
        0.41176500916481018
      ],
      "type": "VEC2"
    },
    {
      "bufferView": 0,
      "byteOffset": 3987228,
      "componentType": 5125,
      "count": 344283,
      "max": [
        65531
      ],
      "min": [
        0
      ],
      "type": "SCALAR"
    },
    {
      "bufferView": 2,
      "byteOffset": 6291072,
      "componentType": 5126,
      "count": 65532,
      "max": [
        0.5,
        -0,
        0.35294100642204285
      ],
      "min": [
        -0.5,
        -0.12303300201892853,
        0.065358996391296387
      ],
      "type": "VEC3"
    },
    {
      "bufferView": 2,
      "byteOffset": 7077456,
      "componentType": 5126,
      "count": 65532,
      "max": [
        0.97716331481933594,
        -0.14088064432144165,
        0.97879642248153687
      ],
      "min": [
        -0.95740354061126709,
        -1,
        -0.96773642301559448
      ],
      "type": "VEC3"
    },
    {
      "bufferView": 3,
      "byteOffset": 4194048,
      "componentType": 5126,
      "count": 65532,
      "max": [
        1,
        0.98260611295700073,
        0.0001743423636071384,
        1
      ],
      "min": [
        0.18570205569267273,
        -0.97902083396911621,
        -0.00010481724893907085,
        1
      ],
      "type": "VEC4"
    },
    {
      "bufferView": 1,
      "byteOffset": 2097024,
      "componentType": 5126,
      "count": 65532,
      "max": [
        1,
        0.85294097661972046
      ],
      "min": [
        0,
        0.56535899639129639
      ],
      "type": "VEC2"
    },
    {
      "bufferView": 0,
      "byteOffset": 5364360,
      "componentType": 5125,
      "count": 332172,
      "max": [
        65531
      ],
      "min": [
        0
      ],
      "type": "SCALAR"
    },
    {
      "bufferView": 2,
      "byteOffset": 7863840,
      "componentType": 5126,
      "count": 65532,
      "max": [
        0.5,
        -0,
        0.5
      ],
      "min": [
        -0.5,
        -0.078529998660087585,
        0.20261399447917938
      ],
      "type": "VEC3"
    },
    {
      "bufferView": 2,
      "byteOffset": 8650224,
      "componentType": 5126,
      "count": 65532,
      "max": [
        0.96088975667953491,
        -0.16974049806594849,
        0.97261756658554077
      ],
      "min": [
        -0.96589022874832153,
        -1,
        -0.98161512613296509
      ],
      "type": "VEC3"
    },
    {
      "bufferView": 3,
      "byteOffset": 5242560,
      "componentType": 5126,
      "count": 65532,
      "max": [
        1,
        0.97571796178817749,
        0.00011051815090468153,
        1
      ],
      "min": [
        0.21903073787689209,
        -0.96827965974807739,
        -0.00010481724893907085,
        1
      ],
      "type": "VEC4"
    },
    {
      "bufferView": 1,
      "byteOffset": 2621280,
      "componentType": 5126,
      "count": 65532,
      "max": [
        1,
        1
      ],
      "min": [
        0,
        0.70261400938034058
      ],
      "type": "VEC2"
    },
    {
      "bufferView": 0,
      "byteOffset": 6693048,
      "componentType": 5125,
      "count": 318066,
      "max": [
        65531
      ],
      "min": [
        0
      ],
      "type": "SCALAR"
    },
    {
      "bufferView": 2,
      "byteOffset": 9436608,
      "componentType": 5126,
      "count": 52812,
      "max": [
        0.5,
        -0,
        0.5
      ],
      "min": [
        -0.5,
        -0.084991998970508575,
        0.34477099776268005
      ],
      "type": "VEC3"
    },
    {
      "bufferView": 2,
      "byteOffset": 10070352,
      "componentType": 5126,
      "count": 52812,
      "max": [
        0.95379668474197388,
        -0.17116977274417877,
        0.97225379943847656
      ],
      "min": [
        -0.94767016172409058,
        -1,
        -0.98504543304443359
      ],
      "type": "VEC3"
    },
    {
      "bufferView": 3,
      "byteOffset": 6291072,
      "componentType": 5126,
      "count": 52812,
      "max": [
        1,
        0.96891927719116211,
        0.00015594738943036646,
        1
      ],
      "min": [
        0.19935308396816254,
        -0.97992783784866333,
        -9.0287445345893502e-05,
        1
      ],
      "type": "VEC4"
    },
    {
      "bufferView": 1,
      "byteOffset": 3145536,
      "componentType": 5126,
      "count": 52812,
      "max": [
        1,
        1
      ],
      "min": [
        0,
        0.84477102756500244
      ],
      "type": "VEC2"
    },
    {
      "bufferView": 0,
      "byteOffset": 7965312,
      "componentType": 5125,
      "count": 255936,
      "max": [
        52811
      ],
      "min": [
        0
      ],
      "type": "SCALAR"
    }
  ],
  "asset": {
    "extras": {
      "author": "artfromheath (https://sketchfab.com/artfromheath)",
      "license": "CC-BY-4.0 (http://creativecommons.org/licenses/by/4.0/)",
      "source": "https://sketchfab.com/3d-models/death-valley-terrain-9f57bca156e14cff9e4e316a9ccc3e0d",
      "title": "Death Valley - Terrain"
    },
    "generator": "Sketchfab-7.27.0",
    "version": "2.0"
  },
  "bufferViews": [
    {
      "buffer": 0,
      "byteLength": 8989056,
      "byteOffset": 0,
      "name": "floatBufferViews",
      "target": 34963
    },
    {
      "buffer": 0,
      "byteLength": 3568032,
      "byteOffset": 8989056,
      "byteStride": 8,
      "name": "floatBufferViews",
      "target": 34962
    },
    {
      "buffer": 0,
      "byteLength": 10704096,
      "byteOffset": 12557088,
      "byteStride": 12,
      "name": "floatBufferViews",
      "target": 34962
    },
    {
      "buffer": 0,
      "byteLength": 7136064,
      "byteOffset": 23261184,
      "byteStride": 16,
      "name": "floatBufferViews",
      "target": 34962
    }
  ],
  "buffers": [
    {
      "byteLength": 30397248,
      "uri": "scene.bin"
    }
  ],
  "images": [
    {
      "uri": "textures/material_0_baseColor.jpeg"
    },
    {
      "uri": "textures/material_0_metallicRoughness.png"
    },
    {
      "uri": "textures/material_0_normal.jpeg"
    }
  ],
  "materials": [
    {
      "doubleSided": true,
      "name": "material_0",
      "normalTexture": {
        "index": 2,
        "scale": 1,
        "texCoord": 0
      },
      "pbrMetallicRoughness": {
        "baseColorFactor": [
          1,
          1,
          1,
          1
        ],
        "baseColorTexture": {
          "index": 0,
          "texCoord": 0
        },
        "metallicFactor": 0,
        "metallicRoughnessTexture": {
          "index": 1,
          "texCoord": 0
        },
        "roughnessFactor": 1
      }
    }
  ],
  "meshes": [
    {
      "primitives": [
        {
          "attributes": {
            "NORMAL": 1,
            "POSITION": 0,
            "TANGENT": 2,
            "TEXCOORD_0": 3
          },
          "indices": 4,
          "material": 0,
          "mode": 4
        }
      ]
    },
    {
      "primitives": [
        {
          "attributes": {
            "NORMAL": 6,
            "POSITION": 5,
            "TANGENT": 7,
            "TEXCOORD_0": 8
          },
          "indices": 9,
          "material": 0,
          "mode": 4
        }
      ]
    },
    {
      "primitives": [
        {
          "attributes": {
            "NORMAL": 11,
            "POSITION": 10,
            "TANGENT": 12,
            "TEXCOORD_0": 13
          },
          "indices": 14,
          "material": 0,
          "mode": 4
        }
      ]
    },
    {
      "primitives": [
        {
          "attributes": {
            "NORMAL": 16,
            "POSITION": 15,
            "TANGENT": 17,
            "TEXCOORD_0": 18
          },
          "indices": 19,
          "material": 0,
          "mode": 4
        }
      ]
    },
    {
      "primitives": [
        {
          "attributes": {
            "NORMAL": 21,
            "POSITION": 20,
            "TANGENT": 22,
            "TEXCOORD_0": 23
          },
          "indices": 24,
          "material": 0,
          "mode": 4
        }
      ]
    },
    {
      "primitives": [
        {
          "attributes": {
            "NORMAL": 26,
            "POSITION": 25,
            "TANGENT": 27,
            "TEXCOORD_0": 28
          },
          "indices": 29,
          "material": 0,
          "mode": 4
        }
      ]
    },
    {
      "primitives": [
        {
          "attributes": {
            "NORMAL": 31,
            "POSITION": 30,
            "TANGENT": 32,
            "TEXCOORD_0": 33
          },
          "indices": 34,
          "material": 0,
          "mode": 4
        }
      ]
    }
  ],
  "nodes": [
    {
      "children": [
        1
      ],
      "name": "RootNode (gltf orientation matrix)",
      "rotation": [
        -0.70710678118654746,
        -0,
        -0,
        0.70710678118654757
      ]
    },
    {
      "children": [
        2
      ],
      "matrix": [
        1,
        0,
        0,
        0,
        0,
        2.2204460492503131e-16,
        -1,
        0,
        0,
        1,
        2.2204460492503131e-16,
        0,
        0,
        -0.061516415327787399,
        -0.061516713351011276,
        1
      ],
      "name": "RootNode (model correction matrix)"
    },
    {
      "children": [
        3,
        4,
        5,
        6,
        7,
        8,
        9
      ],
      "name": "DeathValley Mesh Output.obj.cleaner.materialmerger.gles"
    },
    {
      "mesh": 0,
      "name": ""
    },
    {
      "mesh": 1,
      "name": ""
    },
    {
      "mesh": 2,
      "name": ""
    },
    {
      "mesh": 3,
      "name": ""
    },
    {
      "mesh": 4,
      "name": ""
    },
    {
      "mesh": 5,
      "name": ""
    },
    {
      "mesh": 6,
      "name": ""
    }
  ],
  "samplers": [
    {
      "magFilter": 9729,
      "minFilter": 9987,
      "wrapS": 10497,
      "wrapT": 10497
    }
  ],
  "scene": 0,
  "scenes": [
    {
      "name": "OSG_Scene",
      "nodes": [
        0
      ]
    }
  ],
  "textures": [
    {
      "sampler": 0,
      "source": 0
    },
    {
      "sampler": 0,
      "source": 1
    },
    {
      "sampler": 0,
      "source": 2
    }
  ]
}

