{
  "accessors": [
    {
      "bufferView": 2,
      "componentType": 5126,
      "count": 559,
      "max": [
        1.0000002384185791,
        1,
        1
      ],
      "min": [
        -0.99999982118606567,
        -1.0000003576278687,
        -1
      ],
      "type": "VEC3"
    },
    {
      "bufferView": 2,
      "byteOffset": 6708,
      "componentType": 5126,
      "count": 559,
      "max": [
        1,
        1,
        1
      ],
      "min": [
        -1,
        -1,
        -1
      ],
      "type": "VEC3"
    },
    {
      "bufferView": 1,
      "componentType": 5126,
      "count": 559,
      "max": [
        1.0000002384185791,
        1
      ],
      "min": [
        0,
        0
      ],
      "type": "VEC2"
    },
    {
      "bufferView": 0,
      "componentType": 5125,
      "count": 2880,
      "max": [
        558
      ],
      "min": [
        0
      ],
      "type": "SCALAR"
    },
    {
      "bufferView": 3,
      "componentType": 5126,
      "count": 41,
      "max": [
        0.66666668653488159
      ],
      "min": [
        0
      ],
      "type": "SCALAR"
    },
    {
      "bufferView": 4,
      "componentType": 5126,
      "count": 41,
      "max": [
        0.99998903274536133,
        0,
        0,
        0.99992889165878296
      ],
      "min": [
        -0.82341742515563965,
        0,
        0,
        -0.4929584264755249
      ],
      "type": "VEC4"
    }
  ],
  "animations": [
    {
      "channels": [
        {
          "sampler": 0,
          "target": {
            "node": 10,
            "path": "rotation"
          }
        }
      ],
      "name": "Sphere|SphereAction",
      "samplers": [
        {
          "input": 4,
          "interpolation": "LINEAR",
          "output": 5
        }
      ]
    }
  ],
  "asset": {
    "extras": {
      "author": "merenunal99 (https://sketchfab.com/merenunal99)",
      "license": "CC-BY-4.0 (http://creativecommons.org/licenses/by/4.0/)",
      "source": "https://sketchfab.com/3d-models/ball-animation-8c9078e0f2a542a78e1f58498b52406c",
      "title": "Ball Animation"
    },
    "generator": "Sketchfab-8.83.0",
    "version": "2.0"
  },
  "bufferViews": [
    {
      "buffer": 0,
      "byteLength": 11520,
      "byteOffset": 0,
      "name": "floatBufferViews",
      "target": 34963
    },
    {
      "buffer": 0,
      "byteLength": 4472,
      "byteOffset": 11520,
      "byteStride": 8,
      "name": "floatBufferViews",
      "target": 34962
    },
    {
      "buffer": 0,
      "byteLength": 13416,
      "byteOffset": 15992,
      "byteStride": 12,
      "name": "floatBufferViews",
      "target": 34962
    },
    {
      "buffer": 0,
      "byteLength": 164,
      "byteOffset": 29408,
      "name": "floatBufferViews"
    },
    {
      "buffer": 0,
      "byteLength": 656,
      "byteOffset": 29572,
      "byteStride": 16,
      "name": "floatBufferViews"
    }
  ],
  "buffers": [
    {
      "byteLength": 30228,
      "uri": "Ball.bin"
    }
  ],
  "materials": [
    {
      "doubleSided": true,
      "emissiveFactor": [
        0.0059253600000000002,
        0.0059253600000000002,
        0.0059253600000000002
      ],
      "name": "Material.001",
      "pbrMetallicRoughness": {
        "baseColorFactor": [
          0.80000000000000004,
          0.80000000000000004,
          0.80000000000000004,
          1
        ],
        "metallicFactor": 0,
        "roughnessFactor": 0.95466736415206266
      }
    }
  ],
  "meshes": [
    {
      "name": "Sphere_Material.001_0",
      "primitives": [
        {
          "attributes": {
            "NORMAL": 1,
            "POSITION": 0,
            "TEXCOORD_0": 2
          },
          "indices": 3,
          "material": 0,
          "mode": 4
        }
      ]
    }
  ],
  "nodes": [
    {
      "children": [
        1
      ],
      "name": "RootNode (gltf orientation matrix)",
      "rotation": [
        -0.70710678118654746,
        -0,
        -0,
        0.70710678118654757
      ]
    },
    {
      "children": [
        2
      ],
      "name": "RootNode (model correction matrix)"
    },
    {
      "children": [
        3
      ],
      "matrix": [
        1,
        0,
        0,
        0,
        0,
        0,
        1,
        0,
        0,
        -1,
        0,
        0,
        0,
        0,
        0,
        1
      ],
      "name": "42e7e9fb7c3249158bdb140805de0cad.fbx"
    },
    {
      "children": [
        4
      ],
      "name": ""
    },
    {
      "children": [
        5,
        8,
        10
      ],
      "name": "RootNode"
    },
    {
      "children": [
        6
      ],
      "name": "Light",
      "rotation": [
        0.16907571256160736,
        0.75588035583496094,
        -0.27217131853103638,
        0.57094746828079224
      ],
      "scale": [
        100.00000762939453,
        100,
        100
      ],
      "translation": [
        407.62454223632812,
        590.38623046875,
        -100.54539489746094
      ]
    },
    {
      "children": [
        7
      ],
      "matrix": [
        1,
        0,
        0,
        0,
        0,
        2.2204460492503131e-16,
        1,
        0,
        0,
        -1,
        2.2204460492503131e-16,
        0,
        0,
        0,
        0,
        1
      ],
      "name": ""
    },
    {
      "name": ""
    },
    {
      "children": [
        9
      ],
      "name": "Camera",
      "rotation": [
        -0.21255728602409363,
        0.9047970175743103,
        -0.084389366209506989,
        0.35922172665596008
      ],
      "scale": [
        100,
        100.00000762939453,
        99.999992370605469
      ],
      "translation": [
        735.88916015625,
        562.61614990234375,
        692.5791015625
      ]
    },
    {
      "name": ""
    },
    {
      "children": [
        11
      ],
      "name": "Sphere",
      "rotation": [
        -0.61281627416610718,
        -0,
        0,
        0.79022544622421265
      ],
      "scale": [
        100,
        100,
        100
      ],
      "translation": [
        0,
        118.09471893310547,
        0
      ]
    },
    {
      "mesh": 0,
      "name": "Sphere_Material.001_0"
    }
  ],
  "Ball": 0,
  "scenes": [
    {
      "name": "Ball",
      "nodes": [
        0
      ]
    }
  ]
}

